<mxfile host="65bd71144e">
    <diagram id="7uJ6zBn5PQS6PCVZArLe" name="Page-1">
        <mxGraphModel dx="1143" dy="1100" grid="1" gridSize="10" guides="1" tooltips="1" connect="1" arrows="1" fold="1" page="1" pageScale="1" pageWidth="827" pageHeight="1169" background="#ffffff" math="0" shadow="0">
            <root>
                <mxCell id="0"/>
                <mxCell id="1" parent="0"/>
                <mxCell id="2" value="Package" style="shape=folder;fontStyle=1;tabWidth=110;tabHeight=30;tabPosition=left;html=1;boundedLbl=1;labelInHeader=1;container=1;collapsible=0;fillColor=#FFFFFF;fontColor=#000000;strokeColor=#000000;" vertex="1" parent="1">
                    <mxGeometry x="60" y="20" width="370" height="310" as="geometry"/>
                </mxCell>
                <mxCell id="3" value="" style="html=1;strokeColor=#000000;resizeWidth=1;resizeHeight=1;fillColor=none;part=1;connectable=0;allowArrows=0;deletable=0;" vertex="1" parent="2">
                    <mxGeometry width="370.00000000000006" height="217" relative="1" as="geometry">
                        <mxPoint y="30" as="offset"/>
                    </mxGeometry>
                </mxCell>
                <mxCell id="4" value="Package" style="shape=folder;fontStyle=1;tabWidth=110;tabHeight=30;tabPosition=left;html=1;boundedLbl=1;labelInHeader=1;container=1;collapsible=0;fillColor=#FFFFFF;fontColor=#000000;strokeColor=#000000;" vertex="1" parent="2">
                    <mxGeometry x="20" y="40" width="130" height="100" as="geometry"/>
                </mxCell>
                <mxCell id="5" value="" style="html=1;strokeColor=#000000;resizeWidth=1;resizeHeight=1;fillColor=none;part=1;connectable=0;allowArrows=0;deletable=0;" vertex="1" parent="4">
                    <mxGeometry width="130.00000000000003" height="70" relative="1" as="geometry">
                        <mxPoint y="30" as="offset"/>
                    </mxGeometry>
                </mxCell>
                <mxCell id="6" value="Package" style="shape=folder;fontStyle=1;tabWidth=110;tabHeight=30;tabPosition=left;html=1;boundedLbl=1;labelInHeader=1;container=1;collapsible=0;fillColor=#FFFFFF;fontColor=#000000;strokeColor=#000000;" vertex="1" parent="2">
                    <mxGeometry x="220" y="40" width="130" height="100" as="geometry"/>
                </mxCell>
                <mxCell id="7" value="" style="html=1;strokeColor=#000000;resizeWidth=1;resizeHeight=1;fillColor=none;part=1;connectable=0;allowArrows=0;deletable=0;" vertex="1" parent="6">
                    <mxGeometry width="130.00000000000003" height="70" relative="1" as="geometry">
                        <mxPoint y="30" as="offset"/>
                    </mxGeometry>
                </mxCell>
                <mxCell id="10" value="" style="endArrow=block;startArrow=none;endFill=0;startFill=0;endSize=8;html=1;verticalAlign=bottom;dashed=1;labelBackgroundColor=none;fontColor=#000000;strokeColor=#000000;entryX=0;entryY=0;entryDx=0;entryDy=47.5;entryPerimeter=0;" edge="1" parent="2" source="4" target="6">
                    <mxGeometry width="160" relative="1" as="geometry">
                        <mxPoint x="240" y="260" as="sourcePoint"/>
                        <mxPoint x="400" y="260" as="targetPoint"/>
                    </mxGeometry>
                </mxCell>
                <mxCell id="18" value="Relaciones" style="text;html=1;strokeColor=none;fillColor=none;align=center;verticalAlign=middle;whiteSpace=wrap;rounded=0;fontColor=#000000;fontStyle=1" vertex="1" parent="1">
                    <mxGeometry x="215" y="350" width="60" height="30" as="geometry"/>
                </mxCell>
                <mxCell id="20" value="Dependencia" style="text;html=1;strokeColor=none;fillColor=none;align=center;verticalAlign=middle;whiteSpace=wrap;rounded=0;fontColor=#000000;" vertex="1" parent="1">
                    <mxGeometry x="215" y="395" width="60" height="30" as="geometry"/>
                </mxCell>
                <mxCell id="21" value="Package" style="shape=folder;fontStyle=1;tabWidth=110;tabHeight=30;tabPosition=left;html=1;boundedLbl=1;labelInHeader=1;container=1;collapsible=0;strokeColor=#000000;fontColor=#000000;fillColor=#FFFFFF;" vertex="1" parent="1">
                    <mxGeometry x="40" y="430" width="150" height="100" as="geometry"/>
                </mxCell>
                <mxCell id="22" value="Comida" style="html=1;strokeColor=none;resizeWidth=1;resizeHeight=1;fillColor=none;part=1;connectable=0;allowArrows=0;deletable=0;fontColor=#000000;" vertex="1" parent="21">
                    <mxGeometry width="150" height="70" relative="1" as="geometry">
                        <mxPoint y="30" as="offset"/>
                    </mxGeometry>
                </mxCell>
                <mxCell id="23" value="Package" style="shape=folder;fontStyle=1;tabWidth=110;tabHeight=30;tabPosition=left;html=1;boundedLbl=1;labelInHeader=1;container=1;collapsible=0;strokeColor=#000000;fontColor=#000000;fillColor=#FFFFFF;" vertex="1" parent="1">
                    <mxGeometry x="340" y="425" width="150" height="100" as="geometry"/>
                </mxCell>
                <mxCell id="24" value="Cocinero" style="html=1;strokeColor=none;resizeWidth=1;resizeHeight=1;fillColor=none;part=1;connectable=0;allowArrows=0;deletable=0;fontColor=#000000;" vertex="1" parent="23">
                    <mxGeometry width="150" height="70" relative="1" as="geometry">
                        <mxPoint y="30" as="offset"/>
                    </mxGeometry>
                </mxCell>
                <mxCell id="25" value="" style="endArrow=block;startArrow=none;endFill=0;startFill=0;endSize=8;html=1;verticalAlign=bottom;dashed=1;labelBackgroundColor=none;fontColor=#000000;strokeColor=#000000;entryX=0;entryY=0;entryDx=0;entryDy=65;entryPerimeter=0;exitX=1.02;exitY=0.59;exitDx=0;exitDy=0;exitPerimeter=0;" edge="1" parent="1" source="21" target="23">
                    <mxGeometry width="160" relative="1" as="geometry">
                        <mxPoint x="220" y="118.7962962962963" as="sourcePoint"/>
                        <mxPoint x="290" y="117.5" as="targetPoint"/>
                    </mxGeometry>
                </mxCell>
                <mxCell id="26" value="Package" style="shape=folder;fontStyle=1;tabWidth=110;tabHeight=30;tabPosition=left;html=1;boundedLbl=1;labelInHeader=1;container=1;collapsible=0;strokeColor=#000000;fontColor=#000000;fillColor=#FFFFFF;" vertex="1" parent="1">
                    <mxGeometry x="40" y="605" width="150" height="100" as="geometry"/>
                </mxCell>
                <mxCell id="27" value="Profesion" style="html=1;strokeColor=none;resizeWidth=1;resizeHeight=1;fillColor=none;part=1;connectable=0;allowArrows=0;deletable=0;fontColor=#000000;" vertex="1" parent="26">
                    <mxGeometry width="150" height="70" relative="1" as="geometry">
                        <mxPoint y="30" as="offset"/>
                    </mxGeometry>
                </mxCell>
                <mxCell id="28" value="Package" style="shape=folder;fontStyle=1;tabWidth=110;tabHeight=30;tabPosition=left;html=1;boundedLbl=1;labelInHeader=1;container=1;collapsible=0;strokeColor=#000000;fontColor=#000000;fillColor=#FFFFFF;" vertex="1" parent="1">
                    <mxGeometry x="340" y="600" width="150" height="100" as="geometry"/>
                </mxCell>
                <mxCell id="29" value="Ingeniero" style="html=1;strokeColor=none;resizeWidth=1;resizeHeight=1;fillColor=none;part=1;connectable=0;allowArrows=0;deletable=0;fontColor=#000000;" vertex="1" parent="28">
                    <mxGeometry width="150" height="70" relative="1" as="geometry">
                        <mxPoint y="30" as="offset"/>
                    </mxGeometry>
                </mxCell>
                <mxCell id="31" value="Generalizacion" style="text;html=1;strokeColor=none;fillColor=none;align=center;verticalAlign=middle;whiteSpace=wrap;rounded=0;fontColor=#000000;" vertex="1" parent="1">
                    <mxGeometry x="215" y="560" width="60" height="30" as="geometry"/>
                </mxCell>
                <mxCell id="32" value="" style="endArrow=classic;html=1;strokeColor=#000000;fontColor=#000000;entryX=0;entryY=0;entryDx=150;entryDy=65;entryPerimeter=0;exitX=-0.007;exitY=0.692;exitDx=0;exitDy=0;exitPerimeter=0;endFill=1;" edge="1" parent="1" source="28" target="26">
                    <mxGeometry width="50" height="50" relative="1" as="geometry">
                        <mxPoint x="260" y="790" as="sourcePoint"/>
                        <mxPoint x="310" y="740" as="targetPoint"/>
                    </mxGeometry>
                </mxCell>
                <mxCell id="33" value="Menu" style="shape=folder;fontStyle=1;tabWidth=110;tabHeight=30;tabPosition=left;html=1;boundedLbl=1;labelInHeader=1;container=1;collapsible=0;strokeColor=#000000;fontColor=#000000;fillColor=#FFFFFF;" vertex="1" parent="1">
                    <mxGeometry x="40" y="755" width="150" height="100" as="geometry"/>
                </mxCell>
                <mxCell id="34" value="" style="html=1;strokeColor=none;resizeWidth=1;resizeHeight=1;fillColor=none;part=1;connectable=0;allowArrows=0;deletable=0;fontColor=#000000;" vertex="1" parent="33">
                    <mxGeometry width="150" height="70" relative="1" as="geometry">
                        <mxPoint y="30" as="offset"/>
                    </mxGeometry>
                </mxCell>
                <mxCell id="35" value="Menu 2.0" style="shape=folder;fontStyle=1;tabWidth=110;tabHeight=30;tabPosition=left;html=1;boundedLbl=1;labelInHeader=1;container=1;collapsible=0;strokeColor=#000000;fontColor=#000000;fillColor=#FFFFFF;" vertex="1" parent="1">
                    <mxGeometry x="340" y="750" width="150" height="100" as="geometry"/>
                </mxCell>
                <mxCell id="36" value="" style="html=1;strokeColor=none;resizeWidth=1;resizeHeight=1;fillColor=none;part=1;connectable=0;allowArrows=0;deletable=0;fontColor=#000000;" vertex="1" parent="35">
                    <mxGeometry width="150" height="70" relative="1" as="geometry">
                        <mxPoint y="30" as="offset"/>
                    </mxGeometry>
                </mxCell>
                <mxCell id="37" value="Refinamiento" style="text;html=1;strokeColor=none;fillColor=none;align=center;verticalAlign=middle;whiteSpace=wrap;rounded=0;fontColor=#000000;" vertex="1" parent="1">
                    <mxGeometry x="215" y="710" width="60" height="30" as="geometry"/>
                </mxCell>
                <mxCell id="38" value="" style="endArrow=classic;html=1;strokeColor=#000000;fontColor=#000000;entryX=0;entryY=0;entryDx=150;entryDy=65;entryPerimeter=0;exitX=-0.007;exitY=0.692;exitDx=0;exitDy=0;exitPerimeter=0;endFill=1;dashed=1;" edge="1" parent="1" source="35" target="33">
                    <mxGeometry width="50" height="50" relative="1" as="geometry">
                        <mxPoint x="260" y="940" as="sourcePoint"/>
                        <mxPoint x="310" y="890" as="targetPoint"/>
                    </mxGeometry>
                </mxCell>
                <mxCell id="39" value="&amp;lt;&amp;lt;refine&amp;gt;&amp;gt;" style="text;html=1;strokeColor=none;fillColor=none;align=center;verticalAlign=middle;whiteSpace=wrap;rounded=0;fontColor=#000000;" vertex="1" parent="1">
                    <mxGeometry x="236" y="793" width="60" height="30" as="geometry"/>
                </mxCell>
                <mxCell id="40" value="Suscripcion mensual" style="shape=folder;fontStyle=1;tabWidth=110;tabHeight=30;tabPosition=left;html=1;boundedLbl=1;labelInHeader=1;container=1;collapsible=0;strokeColor=#000000;fontColor=#000000;fillColor=#FFFFFF;" vertex="1" parent="1">
                    <mxGeometry x="41" y="925" width="150" height="100" as="geometry"/>
                </mxCell>
                <mxCell id="41" value="Suscripcion mensual" style="html=1;strokeColor=none;resizeWidth=1;resizeHeight=1;fillColor=none;part=1;connectable=0;allowArrows=0;deletable=0;fontColor=#000000;" vertex="1" parent="40">
                    <mxGeometry width="150" height="70" relative="1" as="geometry">
                        <mxPoint y="30" as="offset"/>
                    </mxGeometry>
                </mxCell>
                <mxCell id="42" value="Beneficios" style="shape=folder;fontStyle=1;tabWidth=110;tabHeight=30;tabPosition=left;html=1;boundedLbl=1;labelInHeader=1;container=1;collapsible=0;strokeColor=#000000;fontColor=#000000;fillColor=#FFFFFF;" vertex="1" parent="1">
                    <mxGeometry x="341" y="920" width="150" height="100" as="geometry"/>
                </mxCell>
                <mxCell id="43" value="+ Compra ilimitada" style="html=1;strokeColor=none;resizeWidth=1;resizeHeight=1;fillColor=none;part=1;connectable=0;allowArrows=0;deletable=0;fontColor=#000000;" vertex="1" parent="42">
                    <mxGeometry width="150" height="70" relative="1" as="geometry">
                        <mxPoint y="30" as="offset"/>
                    </mxGeometry>
                </mxCell>
                <mxCell id="44" value="Accesso" style="text;html=1;strokeColor=none;fillColor=none;align=center;verticalAlign=middle;whiteSpace=wrap;rounded=0;fontColor=#000000;" vertex="1" parent="1">
                    <mxGeometry x="216" y="880" width="60" height="30" as="geometry"/>
                </mxCell>
                <mxCell id="45" value="" style="endArrow=none;html=1;strokeColor=#000000;fontColor=#000000;entryX=0;entryY=0;entryDx=150;entryDy=65;entryPerimeter=0;exitX=-0.007;exitY=0.692;exitDx=0;exitDy=0;exitPerimeter=0;endFill=0;dashed=1;startArrow=open;startFill=0;" edge="1" parent="1" source="42" target="40">
                    <mxGeometry width="50" height="50" relative="1" as="geometry">
                        <mxPoint x="261" y="1110" as="sourcePoint"/>
                        <mxPoint x="311" y="1060" as="targetPoint"/>
                    </mxGeometry>
                </mxCell>
                <mxCell id="46" value="&amp;lt;&amp;lt;access&amp;gt;&amp;gt;" style="text;html=1;strokeColor=none;fillColor=none;align=center;verticalAlign=middle;whiteSpace=wrap;rounded=0;fontColor=#000000;" vertex="1" parent="1">
                    <mxGeometry x="237" y="963" width="60" height="30" as="geometry"/>
                </mxCell>
                <mxCell id="49" value="Menu" style="shape=folder;fontStyle=1;tabWidth=110;tabHeight=30;tabPosition=left;html=1;boundedLbl=1;labelInHeader=1;container=1;collapsible=0;strokeColor=#000000;fontColor=#000000;fillColor=#FFFFFF;" vertex="1" parent="1">
                    <mxGeometry x="41" y="1085" width="150" height="100" as="geometry"/>
                </mxCell>
                <mxCell id="50" value="" style="html=1;strokeColor=none;resizeWidth=1;resizeHeight=1;fillColor=none;part=1;connectable=0;allowArrows=0;deletable=0;fontColor=#000000;" vertex="1" parent="49">
                    <mxGeometry width="150" height="70" relative="1" as="geometry">
                        <mxPoint y="30" as="offset"/>
                    </mxGeometry>
                </mxCell>
                <mxCell id="51" value="Producto" style="shape=folder;fontStyle=1;tabWidth=110;tabHeight=30;tabPosition=left;html=1;boundedLbl=1;labelInHeader=1;container=1;collapsible=0;strokeColor=#000000;fontColor=#000000;fillColor=#FFFFFF;" vertex="1" parent="1">
                    <mxGeometry x="341" y="1080" width="150" height="100" as="geometry"/>
                </mxCell>
                <mxCell id="52" value="+ fffkkk&lt;br&gt;- hhhhh" style="html=1;strokeColor=none;resizeWidth=1;resizeHeight=1;fillColor=none;part=1;connectable=0;allowArrows=0;deletable=0;fontColor=#000000;" vertex="1" parent="51">
                    <mxGeometry width="150" height="70" relative="1" as="geometry">
                        <mxPoint y="30" as="offset"/>
                    </mxGeometry>
                </mxCell>
                <mxCell id="53" value="Importacion" style="text;html=1;strokeColor=none;fillColor=none;align=center;verticalAlign=middle;whiteSpace=wrap;rounded=0;fontColor=#000000;" vertex="1" parent="1">
                    <mxGeometry x="216" y="1040" width="60" height="30" as="geometry"/>
                </mxCell>
                <mxCell id="54" value="" style="endArrow=none;html=1;strokeColor=#000000;fontColor=#000000;entryX=0;entryY=0;entryDx=150;entryDy=65;entryPerimeter=0;exitX=-0.007;exitY=0.692;exitDx=0;exitDy=0;exitPerimeter=0;endFill=0;dashed=1;startArrow=open;startFill=0;" edge="1" parent="1" source="51" target="49">
                    <mxGeometry width="50" height="50" relative="1" as="geometry">
                        <mxPoint x="261" y="1270" as="sourcePoint"/>
                        <mxPoint x="311" y="1220" as="targetPoint"/>
                    </mxGeometry>
                </mxCell>
                <mxCell id="55" value="&amp;lt;&amp;lt;import&amp;gt;&amp;gt;" style="text;html=1;strokeColor=none;fillColor=none;align=center;verticalAlign=middle;whiteSpace=wrap;rounded=0;fontColor=#000000;" vertex="1" parent="1">
                    <mxGeometry x="237" y="1123" width="60" height="30" as="geometry"/>
                </mxCell>
                <mxCell id="56" value="Source" style="shape=folder;fontStyle=1;tabWidth=110;tabHeight=30;tabPosition=left;html=1;boundedLbl=1;labelInHeader=1;container=1;collapsible=0;strokeColor=#000000;fontColor=#000000;fillColor=#FFFFFF;" vertex="1" parent="1">
                    <mxGeometry x="40" y="1255" width="150" height="100" as="geometry"/>
                </mxCell>
                <mxCell id="57" value="" style="html=1;strokeColor=none;resizeWidth=1;resizeHeight=1;fillColor=none;part=1;connectable=0;allowArrows=0;deletable=0;fontColor=#000000;" vertex="1" parent="56">
                    <mxGeometry width="150" height="70" relative="1" as="geometry">
                        <mxPoint y="30" as="offset"/>
                    </mxGeometry>
                </mxCell>
                <mxCell id="58" value="Target" style="shape=folder;fontStyle=1;tabWidth=110;tabHeight=30;tabPosition=left;html=1;boundedLbl=1;labelInHeader=1;container=1;collapsible=0;strokeColor=#000000;fontColor=#000000;fillColor=#FFFFFF;" vertex="1" parent="1">
                    <mxGeometry x="340" y="1250" width="150" height="100" as="geometry"/>
                </mxCell>
                <mxCell id="59" value="" style="html=1;strokeColor=none;resizeWidth=1;resizeHeight=1;fillColor=none;part=1;connectable=0;allowArrows=0;deletable=0;fontColor=#000000;" vertex="1" parent="58">
                    <mxGeometry width="150" height="70" relative="1" as="geometry">
                        <mxPoint y="30" as="offset"/>
                    </mxGeometry>
                </mxCell>
                <mxCell id="60" value="Merge(funcion)&lt;br&gt;Merge(combinacion)" style="text;html=1;strokeColor=none;fillColor=none;align=center;verticalAlign=middle;whiteSpace=wrap;rounded=0;fontColor=#000000;" vertex="1" parent="1">
                    <mxGeometry x="215" y="1210" width="60" height="30" as="geometry"/>
                </mxCell>
                <mxCell id="61" value="" style="endArrow=none;html=1;strokeColor=#000000;fontColor=#000000;entryX=0;entryY=0;entryDx=150;entryDy=65;entryPerimeter=0;exitX=-0.007;exitY=0.692;exitDx=0;exitDy=0;exitPerimeter=0;endFill=0;dashed=1;startArrow=open;startFill=0;" edge="1" parent="1" source="58" target="56">
                    <mxGeometry width="50" height="50" relative="1" as="geometry">
                        <mxPoint x="260" y="1440" as="sourcePoint"/>
                        <mxPoint x="310" y="1390" as="targetPoint"/>
                    </mxGeometry>
                </mxCell>
                <mxCell id="62" value="&amp;lt;&amp;lt;merge&amp;gt;&amp;gt;" style="text;html=1;strokeColor=none;fillColor=none;align=center;verticalAlign=middle;whiteSpace=wrap;rounded=0;fontColor=#000000;" vertex="1" parent="1">
                    <mxGeometry x="236" y="1293" width="60" height="30" as="geometry"/>
                </mxCell>
                <mxCell id="63" value="Secretaria" style="shape=folder;fontStyle=1;tabWidth=110;tabHeight=30;tabPosition=left;html=1;boundedLbl=1;labelInHeader=1;container=1;collapsible=0;strokeColor=#000000;fontColor=#000000;fillColor=#FFFFFF;" vertex="1" parent="1">
                    <mxGeometry x="50" y="1430" width="408.62" height="240" as="geometry"/>
                </mxCell>
                <mxCell id="64" value="" style="html=1;strokeColor=none;resizeWidth=1;resizeHeight=1;fillColor=none;part=1;connectable=0;allowArrows=0;deletable=0;fontColor=#000000;" vertex="1" parent="63">
                    <mxGeometry width="370.00187343036913" height="168" relative="1" as="geometry">
                        <mxPoint y="30" as="offset"/>
                    </mxGeometry>
                </mxCell>
                <mxCell id="67" value="Asistente" style="swimlane;fontStyle=0;align=center;verticalAlign=top;childLayout=stackLayout;horizontal=1;startSize=55;horizontalStack=0;resizeParent=1;resizeParentMax=0;resizeLast=0;collapsible=0;marginBottom=0;html=1;strokeColor=#000000;fontColor=#000000;fillColor=#FFFFFF;" vertex="1" parent="63">
                    <mxGeometry x="9.000050633253219" y="49.99857142857143" width="110.0005569657854" height="136.23076923076925" as="geometry"/>
                </mxCell>
                <mxCell id="68" value="- nombre:str" style="text;html=1;strokeColor=none;fillColor=none;align=left;verticalAlign=middle;spacingLeft=4;spacingRight=4;overflow=hidden;rotatable=0;points=[[0,0.5],[1,0.5]];portConstraint=eastwest;fontColor=#000000;" vertex="1" parent="67">
                    <mxGeometry y="55" width="110.0005569657854" height="18.461538461538463" as="geometry"/>
                </mxCell>
                <mxCell id="69" value="- edad:int" style="text;html=1;strokeColor=none;fillColor=none;align=left;verticalAlign=middle;spacingLeft=4;spacingRight=4;overflow=hidden;rotatable=0;points=[[0,0.5],[1,0.5]];portConstraint=eastwest;fontColor=#000000;" vertex="1" parent="67">
                    <mxGeometry y="73.46153846153847" width="110.0005569657854" height="18.461538461538463" as="geometry"/>
                </mxCell>
                <mxCell id="70" value="- CI:int" style="text;html=1;strokeColor=none;fillColor=none;align=left;verticalAlign=middle;spacingLeft=4;spacingRight=4;overflow=hidden;rotatable=0;points=[[0,0.5],[1,0.5]];portConstraint=eastwest;fontColor=#000000;" vertex="1" parent="67">
                    <mxGeometry y="91.92307692307693" width="110.0005569657854" height="18.461538461538463" as="geometry"/>
                </mxCell>
                <mxCell id="72" value="" style="line;strokeWidth=1;fillColor=none;align=left;verticalAlign=middle;spacingTop=-1;spacingLeft=3;spacingRight=3;rotatable=0;labelPosition=right;points=[];portConstraint=eastwest;strokeColor=#000000;fontColor=#000000;" vertex="1" parent="67">
                    <mxGeometry y="110.3846153846154" width="110.0005569657854" height="7.384615384615385" as="geometry"/>
                </mxCell>
                <mxCell id="74" value="+ obtenerSueldo()" style="text;html=1;strokeColor=none;fillColor=none;align=left;verticalAlign=middle;spacingLeft=4;spacingRight=4;overflow=hidden;rotatable=0;points=[[0,0.5],[1,0.5]];portConstraint=eastwest;fontColor=#000000;" vertex="1" parent="67">
                    <mxGeometry y="117.76923076923079" width="110.0005569657854" height="18.461538461538463" as="geometry"/>
                </mxCell>
                <mxCell id="75" value="Oficina" style="swimlane;fontStyle=0;align=center;verticalAlign=top;childLayout=stackLayout;horizontal=1;startSize=55;horizontalStack=0;resizeParent=1;resizeParentMax=0;resizeLast=0;collapsible=0;marginBottom=0;html=1;strokeColor=#000000;fontColor=#000000;fillColor=#FFFFFF;" vertex="1" parent="63">
                    <mxGeometry x="213.00108355161888" y="49.99857142857143" width="150.0007594987983" height="99.30769230769232" as="geometry"/>
                </mxCell>
                <mxCell id="76" value="- oficina: str" style="text;html=1;strokeColor=none;fillColor=none;align=left;verticalAlign=middle;spacingLeft=4;spacingRight=4;overflow=hidden;rotatable=0;points=[[0,0.5],[1,0.5]];portConstraint=eastwest;fontColor=#000000;" vertex="1" parent="75">
                    <mxGeometry y="55" width="150.0007594987983" height="18.461538461538463" as="geometry"/>
                </mxCell>
                <mxCell id="77" value="- hora_de_trabajo: str" style="text;html=1;strokeColor=none;fillColor=none;align=left;verticalAlign=middle;spacingLeft=4;spacingRight=4;overflow=hidden;rotatable=0;points=[[0,0.5],[1,0.5]];portConstraint=eastwest;fontColor=#000000;" vertex="1" parent="75">
                    <mxGeometry y="73.46153846153847" width="150.0007594987983" height="18.461538461538463" as="geometry"/>
                </mxCell>
                <mxCell id="79" value="" style="line;strokeWidth=1;fillColor=none;align=left;verticalAlign=middle;spacingTop=-1;spacingLeft=3;spacingRight=3;rotatable=0;labelPosition=right;points=[];portConstraint=eastwest;strokeColor=#000000;fontColor=#000000;" vertex="1" parent="75">
                    <mxGeometry y="91.92307692307693" width="150.0007594987983" height="7.384615384615385" as="geometry"/>
                </mxCell>
                <mxCell id="82" value="" style="endArrow=none;html=1;rounded=0;align=center;verticalAlign=top;endFill=0;labelBackgroundColor=none;dashed=1;strokeColor=#000000;fontColor=#000000;exitX=1.026;exitY=0.201;exitDx=0;exitDy=0;exitPerimeter=0;entryX=0.008;entryY=0.291;entryDx=0;entryDy=0;entryPerimeter=0;" edge="1" parent="63" source="67" target="75">
                    <mxGeometry relative="1" as="geometry">
                        <mxPoint x="210.0010632983176" y="96" as="sourcePoint"/>
                        <mxPoint x="370.00187343036913" y="96" as="targetPoint"/>
                    </mxGeometry>
                </mxCell>
                <mxCell id="83" value="0..*" style="resizable=0;html=1;align=left;verticalAlign=bottom;labelBackgroundColor=none;strokeColor=#000000;fontColor=#000000;fillColor=#FFFFFF;" connectable="0" vertex="1" parent="82">
                    <mxGeometry x="-1" relative="1" as="geometry"/>
                </mxCell>
                <mxCell id="85" value="1" style="resizable=0;html=1;align=right;verticalAlign=bottom;labelBackgroundColor=none;strokeColor=#000000;fontColor=#000000;fillColor=#FFFFFF;" connectable="0" vertex="1" parent="82">
                    <mxGeometry x="1" relative="1" as="geometry"/>
                </mxCell>
                <mxCell id="65" value="Componentos privados de target no entran al resultado" style="text;html=1;strokeColor=none;fillColor=none;align=center;verticalAlign=middle;whiteSpace=wrap;rounded=0;fontColor=#000000;" vertex="1" parent="1">
                    <mxGeometry x="500" y="1255" width="240" height="30" as="geometry"/>
                </mxCell>
                <mxCell id="66" value="Ejemplo" style="text;html=1;strokeColor=none;fillColor=none;align=center;verticalAlign=middle;whiteSpace=wrap;rounded=0;fontColor=#000000;" vertex="1" parent="1">
                    <mxGeometry x="470" y="1390" width="60" height="30" as="geometry"/>
                </mxCell>
                <mxCell id="86" value="Asistente" style="shape=folder;fontStyle=1;tabWidth=110;tabHeight=30;tabPosition=left;html=1;boundedLbl=1;labelInHeader=1;container=1;collapsible=0;strokeColor=#000000;fontColor=#000000;fillColor=#FFFFFF;" vertex="1" parent="1">
                    <mxGeometry x="580" y="1430" width="408.62" height="240" as="geometry"/>
                </mxCell>
                <mxCell id="87" value="" style="html=1;strokeColor=none;resizeWidth=1;resizeHeight=1;fillColor=none;part=1;connectable=0;allowArrows=0;deletable=0;fontColor=#000000;" vertex="1" parent="86">
                    <mxGeometry width="370.00187343036913" height="168" relative="1" as="geometry">
                        <mxPoint y="30" as="offset"/>
                    </mxGeometry>
                </mxCell>
                <mxCell id="88" value="Asistente" style="swimlane;fontStyle=0;align=center;verticalAlign=top;childLayout=stackLayout;horizontal=1;startSize=55;horizontalStack=0;resizeParent=1;resizeParentMax=0;resizeLast=0;collapsible=0;marginBottom=0;html=1;strokeColor=#000000;fontColor=#000000;fillColor=#FFFFFF;" vertex="1" parent="86">
                    <mxGeometry x="9.000050633253219" y="49.99857142857143" width="110.0005569657854" height="99.30769230769232" as="geometry"/>
                </mxCell>
                <mxCell id="89" value="- nombre:str" style="text;html=1;strokeColor=none;fillColor=none;align=left;verticalAlign=middle;spacingLeft=4;spacingRight=4;overflow=hidden;rotatable=0;points=[[0,0.5],[1,0.5]];portConstraint=eastwest;fontColor=#000000;" vertex="1" parent="88">
                    <mxGeometry y="55" width="110.0005569657854" height="18.461538461538463" as="geometry"/>
                </mxCell>
                <mxCell id="92" value="" style="line;strokeWidth=1;fillColor=none;align=left;verticalAlign=middle;spacingTop=-1;spacingLeft=3;spacingRight=3;rotatable=0;labelPosition=right;points=[];portConstraint=eastwest;strokeColor=#000000;fontColor=#000000;" vertex="1" parent="88">
                    <mxGeometry y="73.46153846153847" width="110.0005569657854" height="7.384615384615385" as="geometry"/>
                </mxCell>
                <mxCell id="93" value="+listarReuniones()" style="text;html=1;strokeColor=none;fillColor=none;align=left;verticalAlign=middle;spacingLeft=4;spacingRight=4;overflow=hidden;rotatable=0;points=[[0,0.5],[1,0.5]];portConstraint=eastwest;fontColor=#000000;" vertex="1" parent="88">
                    <mxGeometry y="80.84615384615385" width="110.0005569657854" height="18.461538461538463" as="geometry"/>
                </mxCell>
                <mxCell id="98" value="" style="endArrow=none;html=1;rounded=0;align=center;verticalAlign=top;endFill=0;labelBackgroundColor=none;dashed=1;strokeColor=#000000;fontColor=#000000;exitX=1.026;exitY=0.201;exitDx=0;exitDy=0;exitPerimeter=0;entryX=0;entryY=0.25;entryDx=0;entryDy=0;" edge="1" parent="86" source="88" target="103">
                    <mxGeometry relative="1" as="geometry">
                        <mxPoint x="210.0010632983176" y="96" as="sourcePoint"/>
                        <mxPoint x="214.20108962760924" y="78.89710989010996" as="targetPoint"/>
                    </mxGeometry>
                </mxCell>
                <mxCell id="99" value="1..*" style="resizable=0;html=1;align=left;verticalAlign=bottom;labelBackgroundColor=none;strokeColor=#000000;fontColor=#000000;fillColor=#FFFFFF;" connectable="0" vertex="1" parent="98">
                    <mxGeometry x="-1" relative="1" as="geometry"/>
                </mxCell>
                <mxCell id="100" value="1..*" style="resizable=0;html=1;align=right;verticalAlign=bottom;labelBackgroundColor=none;strokeColor=#000000;fontColor=#000000;fillColor=#FFFFFF;" connectable="0" vertex="1" parent="98">
                    <mxGeometry x="1" relative="1" as="geometry"/>
                </mxCell>
                <mxCell id="103" value="Reuniones" style="swimlane;fontStyle=0;align=center;verticalAlign=top;childLayout=stackLayout;horizontal=1;startSize=55;horizontalStack=0;resizeParent=1;resizeParentMax=0;resizeLast=0;collapsible=0;marginBottom=0;html=1;strokeColor=#000000;fontColor=#000000;fillColor=#FFFFFF;" vertex="1" parent="86">
                    <mxGeometry x="240.00005063325318" y="39.998571428571495" width="110.0005569657854" height="117.76923076923079" as="geometry"/>
                </mxCell>
                <mxCell id="104" value="- nombre:str" style="text;html=1;strokeColor=none;fillColor=none;align=left;verticalAlign=middle;spacingLeft=4;spacingRight=4;overflow=hidden;rotatable=0;points=[[0,0.5],[1,0.5]];portConstraint=eastwest;fontColor=#000000;" vertex="1" parent="103">
                    <mxGeometry y="55" width="110.0005569657854" height="18.461538461538463" as="geometry"/>
                </mxCell>
                <mxCell id="107" value="- fecha: str" style="text;html=1;strokeColor=none;fillColor=none;align=left;verticalAlign=middle;spacingLeft=4;spacingRight=4;overflow=hidden;rotatable=0;points=[[0,0.5],[1,0.5]];portConstraint=eastwest;fontColor=#000000;" vertex="1" parent="103">
                    <mxGeometry y="73.46153846153847" width="110.0005569657854" height="18.461538461538463" as="geometry"/>
                </mxCell>
                <mxCell id="105" value="" style="line;strokeWidth=1;fillColor=none;align=left;verticalAlign=middle;spacingTop=-1;spacingLeft=3;spacingRight=3;rotatable=0;labelPosition=right;points=[];portConstraint=eastwest;strokeColor=#000000;fontColor=#000000;" vertex="1" parent="103">
                    <mxGeometry y="91.92307692307693" width="110.0005569657854" height="7.384615384615385" as="geometry"/>
                </mxCell>
                <mxCell id="106" value="+listarReuniones()" style="text;html=1;strokeColor=none;fillColor=none;align=left;verticalAlign=middle;spacingLeft=4;spacingRight=4;overflow=hidden;rotatable=0;points=[[0,0.5],[1,0.5]];portConstraint=eastwest;fontColor=#000000;" vertex="1" parent="103">
                    <mxGeometry y="99.30769230769232" width="110.0005569657854" height="18.461538461538463" as="geometry"/>
                </mxCell>
                <mxCell id="101" value="" style="endArrow=none;html=1;strokeColor=#000000;fontColor=#000000;exitX=-0.002;exitY=0.703;exitDx=0;exitDy=0;exitPerimeter=0;endFill=0;dashed=1;startArrow=open;startFill=0;" edge="1" parent="1">
                    <mxGeometry width="50" height="50" relative="1" as="geometry">
                        <mxPoint x="579.1827600000001" y="1540.7199999999998" as="sourcePoint"/>
                        <mxPoint x="460" y="1540" as="targetPoint"/>
                    </mxGeometry>
                </mxCell>
                <mxCell id="102" value="&amp;lt;&amp;lt;merge&amp;gt;&amp;gt;" style="text;html=1;strokeColor=none;fillColor=none;align=center;verticalAlign=middle;whiteSpace=wrap;rounded=0;fontColor=#000000;" vertex="1" parent="1">
                    <mxGeometry x="493" y="1500" width="60" height="30" as="geometry"/>
                </mxCell>
                <mxCell id="108" value="Resultado del merge" style="shape=folder;fontStyle=1;tabWidth=110;tabHeight=30;tabPosition=left;html=1;boundedLbl=1;labelInHeader=1;container=1;collapsible=0;strokeColor=#000000;fontColor=#000000;fillColor=#FFFFFF;" vertex="1" parent="1">
                    <mxGeometry x="318.69" y="1754" width="408.62" height="410" as="geometry"/>
                </mxCell>
                <mxCell id="109" value="" style="html=1;strokeColor=none;resizeWidth=1;resizeHeight=1;fillColor=none;part=1;connectable=0;allowArrows=0;deletable=0;fontColor=#000000;" vertex="1" parent="108">
                    <mxGeometry width="370.00187343036913" height="226.58173213522713" relative="1" as="geometry">
                        <mxPoint y="30" as="offset"/>
                    </mxGeometry>
                </mxCell>
                <mxCell id="110" value="Asistente" style="swimlane;fontStyle=0;align=center;verticalAlign=top;childLayout=stackLayout;horizontal=1;startSize=55;horizontalStack=0;resizeParent=1;resizeParentMax=0;resizeLast=0;collapsible=0;marginBottom=0;html=1;strokeColor=#000000;fontColor=#000000;fillColor=#FFFFFF;" vertex="1" parent="108">
                    <mxGeometry x="9.000050633253219" y="67.43311261055115" width="110" height="189.71828806538457" as="geometry"/>
                </mxCell>
                <mxCell id="111" value="- nombre:str" style="text;html=1;strokeColor=none;fillColor=none;align=left;verticalAlign=middle;spacingLeft=4;spacingRight=4;overflow=hidden;rotatable=0;points=[[0,0.5],[1,0.5]];portConstraint=eastwest;fontColor=#000000;" vertex="1" parent="110">
                    <mxGeometry y="55" width="110" height="24.89909144343156" as="geometry"/>
                </mxCell>
                <mxCell id="125" value="- edad: int" style="text;html=1;strokeColor=none;fillColor=none;align=left;verticalAlign=middle;spacingLeft=4;spacingRight=4;overflow=hidden;rotatable=0;points=[[0,0.5],[1,0.5]];portConstraint=eastwest;fontColor=#000000;" vertex="1" parent="110">
                    <mxGeometry y="79.89909144343156" width="110" height="24.89909144343156" as="geometry"/>
                </mxCell>
                <mxCell id="124" value="- CI: int" style="text;html=1;strokeColor=none;fillColor=none;align=left;verticalAlign=middle;spacingLeft=4;spacingRight=4;overflow=hidden;rotatable=0;points=[[0,0.5],[1,0.5]];portConstraint=eastwest;fontColor=#000000;" vertex="1" parent="110">
                    <mxGeometry y="104.79818288686312" width="110" height="24.89909144343156" as="geometry"/>
                </mxCell>
                <mxCell id="112" value="" style="line;strokeWidth=1;fillColor=none;align=left;verticalAlign=middle;spacingTop=-1;spacingLeft=3;spacingRight=3;rotatable=0;labelPosition=right;points=[];portConstraint=eastwest;strokeColor=#000000;fontColor=#000000;" vertex="1" parent="110">
                    <mxGeometry y="129.69727433029468" width="110" height="9.959636577372622" as="geometry"/>
                </mxCell>
                <mxCell id="113" value="+listarReuniones()" style="text;html=1;strokeColor=none;fillColor=none;align=left;verticalAlign=middle;spacingLeft=4;spacingRight=4;overflow=hidden;rotatable=0;points=[[0,0.5],[1,0.5]];portConstraint=eastwest;fontColor=#000000;" vertex="1" parent="110">
                    <mxGeometry y="139.6569109076673" width="110" height="24.89909144343156" as="geometry"/>
                </mxCell>
                <mxCell id="127" value="+ obtenerSueldo()" style="text;html=1;strokeColor=none;fillColor=none;align=left;verticalAlign=middle;spacingLeft=4;spacingRight=4;overflow=hidden;rotatable=0;points=[[0,0.5],[1,0.5]];portConstraint=eastwest;fontColor=#000000;" vertex="1" parent="110">
                    <mxGeometry y="164.55600235109887" width="110" height="25.162285714285716" as="geometry"/>
                </mxCell>
                <mxCell id="114" value="" style="endArrow=none;html=1;rounded=0;align=center;verticalAlign=top;endFill=0;labelBackgroundColor=none;dashed=1;strokeColor=#000000;fontColor=#000000;exitX=1.026;exitY=0.201;exitDx=0;exitDy=0;exitPerimeter=0;entryX=0;entryY=0.25;entryDx=0;entryDy=0;" edge="1" parent="108" source="110" target="117">
                    <mxGeometry relative="1" as="geometry">
                        <mxPoint x="210.0010632983176" y="129.47527550584408" as="sourcePoint"/>
                        <mxPoint x="214.20108962760924" y="106.40859416288379" as="targetPoint"/>
                    </mxGeometry>
                </mxCell>
                <mxCell id="115" value="1..*" style="resizable=0;html=1;align=left;verticalAlign=bottom;labelBackgroundColor=none;strokeColor=#000000;fontColor=#000000;fillColor=#FFFFFF;" connectable="0" vertex="1" parent="114">
                    <mxGeometry x="-1" relative="1" as="geometry"/>
                </mxCell>
                <mxCell id="116" value="1..*" style="resizable=0;html=1;align=right;verticalAlign=bottom;labelBackgroundColor=none;strokeColor=#000000;fontColor=#000000;fillColor=#FFFFFF;" connectable="0" vertex="1" parent="114">
                    <mxGeometry x="1" relative="1" as="geometry"/>
                </mxCell>
                <mxCell id="117" value="Reuniones" style="swimlane;fontStyle=0;align=center;verticalAlign=top;childLayout=stackLayout;horizontal=1;startSize=55;horizontalStack=0;resizeParent=1;resizeParentMax=0;resizeLast=0;collapsible=0;marginBottom=0;html=1;strokeColor=#000000;fontColor=#000000;fillColor=#FFFFFF;" vertex="1" parent="108">
                    <mxGeometry x="279.3100506332532" y="67.429247602502" width="110.0005569657854" height="139.65691090766728" as="geometry"/>
                </mxCell>
                <mxCell id="118" value="- nombre:str" style="text;html=1;strokeColor=none;fillColor=none;align=left;verticalAlign=middle;spacingLeft=4;spacingRight=4;overflow=hidden;rotatable=0;points=[[0,0.5],[1,0.5]];portConstraint=eastwest;fontColor=#000000;" vertex="1" parent="117">
                    <mxGeometry y="55" width="110.0005569657854" height="24.89909144343156" as="geometry"/>
                </mxCell>
                <mxCell id="119" value="- fecha: str" style="text;html=1;strokeColor=none;fillColor=none;align=left;verticalAlign=middle;spacingLeft=4;spacingRight=4;overflow=hidden;rotatable=0;points=[[0,0.5],[1,0.5]];portConstraint=eastwest;fontColor=#000000;" vertex="1" parent="117">
                    <mxGeometry y="79.89909144343156" width="110.0005569657854" height="24.89909144343156" as="geometry"/>
                </mxCell>
                <mxCell id="120" value="" style="line;strokeWidth=1;fillColor=none;align=left;verticalAlign=middle;spacingTop=-1;spacingLeft=3;spacingRight=3;rotatable=0;labelPosition=right;points=[];portConstraint=eastwest;strokeColor=#000000;fontColor=#000000;" vertex="1" parent="117">
                    <mxGeometry y="104.79818288686312" width="110.0005569657854" height="9.959636577372622" as="geometry"/>
                </mxCell>
                <mxCell id="121" value="+listarReuniones()" style="text;html=1;strokeColor=none;fillColor=none;align=left;verticalAlign=middle;spacingLeft=4;spacingRight=4;overflow=hidden;rotatable=0;points=[[0,0.5],[1,0.5]];portConstraint=eastwest;fontColor=#000000;" vertex="1" parent="117">
                    <mxGeometry y="114.75781946423574" width="110.0005569657854" height="24.89909144343156" as="geometry"/>
                </mxCell>
                <mxCell id="130" value="Oficina" style="swimlane;fontStyle=0;align=center;verticalAlign=top;childLayout=stackLayout;horizontal=1;startSize=55;horizontalStack=0;resizeParent=1;resizeParentMax=0;resizeLast=0;collapsible=0;marginBottom=0;html=1;strokeColor=#000000;fontColor=#000000;fillColor=#FFFFFF;" vertex="1" parent="108">
                    <mxGeometry x="239.31108355161888" y="265.9992541840089" width="150.0007594987983" height="114.75781946423574" as="geometry"/>
                </mxCell>
                <mxCell id="131" value="- oficina: str" style="text;html=1;strokeColor=none;fillColor=none;align=left;verticalAlign=middle;spacingLeft=4;spacingRight=4;overflow=hidden;rotatable=0;points=[[0,0.5],[1,0.5]];portConstraint=eastwest;fontColor=#000000;" vertex="1" parent="130">
                    <mxGeometry y="55" width="150.0007594987983" height="24.89909144343156" as="geometry"/>
                </mxCell>
                <mxCell id="132" value="- hora_de_trabajo: str" style="text;html=1;strokeColor=none;fillColor=none;align=left;verticalAlign=middle;spacingLeft=4;spacingRight=4;overflow=hidden;rotatable=0;points=[[0,0.5],[1,0.5]];portConstraint=eastwest;fontColor=#000000;" vertex="1" parent="130">
                    <mxGeometry y="79.89909144343156" width="150.0007594987983" height="24.89909144343156" as="geometry"/>
                </mxCell>
                <mxCell id="133" value="" style="line;strokeWidth=1;fillColor=none;align=left;verticalAlign=middle;spacingTop=-1;spacingLeft=3;spacingRight=3;rotatable=0;labelPosition=right;points=[];portConstraint=eastwest;strokeColor=#000000;fontColor=#000000;" vertex="1" parent="130">
                    <mxGeometry y="104.79818288686312" width="150.0007594987983" height="9.959636577372622" as="geometry"/>
                </mxCell>
                <mxCell id="134" value="" style="endArrow=none;html=1;rounded=0;align=center;verticalAlign=top;endFill=0;labelBackgroundColor=none;dashed=1;strokeColor=#000000;fontColor=#000000;exitX=1.026;exitY=0.201;exitDx=0;exitDy=0;exitPerimeter=0;entryX=0;entryY=0.25;entryDx=0;entryDy=0;" edge="1" parent="108" target="130">
                    <mxGeometry relative="1" as="geometry">
                        <mxPoint x="119.00062208014907" y="206.0009560439562" as="sourcePoint"/>
                        <mxPoint x="211.3410896276094" y="207.51710989010962" as="targetPoint"/>
                    </mxGeometry>
                </mxCell>
                <mxCell id="135" value="0..*" style="resizable=0;html=1;align=left;verticalAlign=bottom;labelBackgroundColor=none;strokeColor=#000000;fontColor=#000000;fillColor=#FFFFFF;" connectable="0" vertex="1" parent="134">
                    <mxGeometry x="-1" relative="1" as="geometry"/>
                </mxCell>
                <mxCell id="136" value="1" style="resizable=0;html=1;align=right;verticalAlign=bottom;labelBackgroundColor=none;strokeColor=#000000;fontColor=#000000;fillColor=#FFFFFF;" connectable="0" vertex="1" parent="134">
                    <mxGeometry x="1" relative="1" as="geometry"/>
                </mxCell>
            </root>
        </mxGraphModel>
    </diagram>
</mxfile>